<?xml version="1.0" encoding="utf-8"?>
<!-- Generator: Adobe Illustrator 18.0.0, SVG Export Plug-In . SVG Version: 6.00 Build 0)  -->
<!DOCTYPE svg PUBLIC "-//W3C//DTD SVG 1.1//EN" "http://www.w3.org/Graphics/SVG/1.1/DTD/svg11.dtd">
<svg version="1.1" id="Layer_1" xmlns="http://www.w3.org/2000/svg" xmlns:xlink="http://www.w3.org/1999/xlink" x="0px" y="0px"
	 viewBox="0 0 54 86" enable-background="new 0 0 54 86" xml:space="preserve">
<g>
	<g>
		<polygon fill="#1B365E" points="0,15.1 0,15.1 0,64.9 25.3,49.8 25.3,0 		"/>
	</g>
	<g>
		<polygon fill="#1B365E" points="54,36.2 54,36.2 54,86 28.7,70.9 28.7,21.1 		"/>
	</g>
	<g>
		<path fill="#FFFFFF" d="M41.3,63.1c4,2.3,5.6,1.1,5.5-3c0,0,0,0,0,0c0-0.1-0.1-0.1-0.1-0.2c0,0,0,0,0,0L43,57.8l0,0
			c-0.1,0-0.1,0-0.1,0.1c0,2.4-0.5,3.1-1.6,2.4c-2.2-1.3-2.5-3.5-2.5-8.4c0-4.8,0.3-6.8,2.5-5.5c1.2,0.7,1.6,1.8,1.6,4.3
			c0,0.1,0.1,0.2,0.1,0.2l0,0l0,0l3.6,2.1c0,0,0,0,0,0c0.1,0,0.1,0,0.1,0c0,0,0,0,0,0c0.1-3.9-1.5-7-5.5-9.3c-6.5-3.8-6.5,1-6.5,6
			S34.8,59.3,41.3,63.1z"/>
	</g>
	<g>
		<path fill="#FFFFFF" d="M9.7,43.5C9.7,43.5,9.7,43.5,9.7,43.5C9.8,43.5,9.8,43.5,9.7,43.5L9.7,43.5l9.7-5.6l0,0
			c0.1,0,0.1-0.1,0.1-0.2c0,0,0,0,0,0v-2.9c0,0,0,0,0,0c0-0.1-0.1-0.1-0.1-0.1c0,0,0,0,0,0l-5.8,3.3V22.6l0,0c0,0,0,0,0,0
			c0-0.1-0.1-0.1-0.1-0.1l0,0v0l-3.6,2.1c0,0,0,0,0,0c0,0,0,0,0,0c-0.1,0-0.1,0.1-0.1,0.2c0,0,0,0,0,0v0L9.7,43.5L9.7,43.5
			C9.6,43.4,9.6,43.4,9.7,43.5C9.6,43.5,9.6,43.5,9.7,43.5z"/>
	</g>
</g>
</svg>
